HIERARCHY
ROOT newVegas:Hips
{
	OFFSET 0.000000 96.479958 0.000000
	CHANNELS 6 Xposition Yposition Zposition Xrotation Yrotation Zrotation
	JOINT newVegas:Pelvis
	{
		OFFSET 0.000000 0.000000 0.000000
		CHANNELS 3 Xrotation Yrotation Zrotation
		JOINT newVegas:LeftUpLeg
		{
			OFFSET 18.735201 -5.666702 -4.541200
			CHANNELS 3 Xrotation Yrotation Zrotation
			JOINT newVegas:LeftLeg
			{
				OFFSET -0.021200 -31.938179 0.493100
				CHANNELS 3 Xrotation Yrotation Zrotation
				JOINT newVegas:LeftFoot
				{
					OFFSET 0.021200 -31.938179 -4.336299
					CHANNELS 3 Xrotation Yrotation Zrotation
					JOINT newVegas:LeftToeBase
					{
						OFFSET 0.943001 -26.722000 15.023500
						CHANNELS 3 Xrotation Yrotation Zrotation
						End Site
						{
							OFFSET 0.000000 30.670183 0.000000
						}
					}
				}
				JOINT newVegas:Left_PantLeg
				{
					OFFSET 0.663870 -9.044666 -1.108900
					CHANNELS 3 Xrotation Yrotation Zrotation
					End Site
					{
						OFFSET 1.415995 20.635357 0.000000
					}
				}
			}
		}
		JOINT newVegas:RightUpLeg
		{
			OFFSET -18.735201 -5.666702 -4.541200
			CHANNELS 3 Xrotation Yrotation Zrotation
			JOINT newVegas:RightLeg
			{
				OFFSET 0.018946 -31.938133 0.493100
				CHANNELS 3 Xrotation Yrotation Zrotation
				JOINT newVegas:RightFoot
				{
					OFFSET -0.018946 -31.938126 -4.336299
					CHANNELS 3 Xrotation Yrotation Zrotation
					JOINT newVegas:RightToeBase
					{
						OFFSET -0.943001 -26.722004 15.023500
						CHANNELS 3 Xrotation Yrotation Zrotation
						End Site
						{
							OFFSET 0.000000 30.670187 0.000000
						}
					}
				}
				JOINT newVegas:Right_PantLeg
				{
					OFFSET -0.661674 -9.044716 -1.108900
					CHANNELS 3 Xrotation Yrotation Zrotation
					End Site
					{
						OFFSET -1.415958 20.635269 0.000000
					}
				}
			}
		}
	}
	JOINT newVegas:Spine
	{
		OFFSET 0.000000 10.199997 -0.299500
		CHANNELS 3 Xrotation Yrotation Zrotation
		JOINT newVegas:Spine1
		{
			OFFSET 0.000000 11.900002 -1.516600
			CHANNELS 3 Xrotation Yrotation Zrotation
			JOINT newVegas:Spine2
			{
				OFFSET 0.000000 13.600006 -2.842500
				CHANNELS 3 Xrotation Yrotation Zrotation
				JOINT newVegas:Neck
				{
					OFFSET 0.000000 9.624100 -2.890100
					CHANNELS 3 Xrotation Yrotation Zrotation
					JOINT newVegas:Head
					{
						OFFSET 0.000000 14.068802 -1.351900
						CHANNELS 3 Xrotation Yrotation Zrotation
						JOINT newVegas:Hair_Back
						{
							OFFSET 0.000000 3.231903 -17.524799
							CHANNELS 3 Xrotation Yrotation Zrotation
							End Site
							{
								OFFSET 0.000000 19.849884 0.000000
							}
						}
						JOINT newVegas:Hair_Front
						{
							OFFSET 0.000000 31.260406 4.573800
							CHANNELS 3 Xrotation Yrotation Zrotation
							JOINT newVegas:Hair_Front1
							{
								OFFSET 0.000000 2.284103 11.993300
								CHANNELS 3 Xrotation Yrotation Zrotation
								JOINT newVegas:Hair_Front2
								{
									OFFSET 0.000000 2.284103 11.993300
									CHANNELS 3 Xrotation Yrotation Zrotation
									End Site
									{
										OFFSET 0.000000 12.208862 0.000000
									}
								}
							}
						}
						JOINT newVegas:Jowel
						{
							OFFSET 0.000000 -7.458206 6.864100
							CHANNELS 3 Xrotation Yrotation Zrotation
							End Site
							{
								OFFSET 0.000000 19.849884 0.000000
							}
						}
					}
				}
				JOINT newVegas:LeftShoulder
				{
					OFFSET 15.263000 10.923401 -0.547700
					CHANNELS 3 Xrotation Yrotation Zrotation
					JOINT newVegas:LeftArm
					{
						OFFSET 25.438599 -2.830597 -13.032500
						CHANNELS 3 Xrotation Yrotation Zrotation
						JOINT newVegas:LeftForeArm
						{
							OFFSET 29.960503 0.000000 0.000000
							CHANNELS 3 Xrotation Yrotation Zrotation
							JOINT newVegas:LeftHand
							{
								OFFSET 27.849251 0.000000 0.000000
								CHANNELS 3 Xrotation Yrotation Zrotation
								JOINT newVegas:LeftHandThumb1
								{
									OFFSET 4.487587 -3.305161 6.305391
									CHANNELS 3 Xrotation Yrotation Zrotation
									JOINT newVegas:LeftHandThumb2
									{
										OFFSET 5.480453 -3.164139 3.164143
										CHANNELS 3 Xrotation Yrotation Zrotation
										JOINT newVegas:LeftHandThumb3
										{
											OFFSET 5.159721 -2.978973 2.978967
											CHANNELS 3 Xrotation Yrotation Zrotation
											End Site
											{
												OFFSET 2.494507 5.926697 1.738678
											}
										}
									}
								}
								JOINT newVegas:LeftHandIndex1
								{
									OFFSET 18.578728 -0.527832 5.208049
									CHANNELS 3 Xrotation Yrotation Zrotation
									JOINT newVegas:LeftHandIndex2
									{
										OFFSET 3.192009 0.000000 0.000000
										CHANNELS 3 Xrotation Yrotation Zrotation
										JOINT newVegas:LeftHandIndex3
										{
											OFFSET 3.835129 0.000000 0.000000
											CHANNELS 3 Xrotation Yrotation Zrotation
											End Site
											{
												OFFSET -0.034599 3.816971 0.371180
											}
										}
									}
								}
								JOINT newVegas:LeftHandMiddle1
								{
									OFFSET 18.476105 0.000000 0.000000
									CHANNELS 3 Xrotation Yrotation Zrotation
									JOINT newVegas:LeftHandMiddle2
									{
										OFFSET 3.324875 0.000000 0.000000
										CHANNELS 3 Xrotation Yrotation Zrotation
										JOINT newVegas:LeftHandMiddle3
										{
											OFFSET 4.596550 0.000000 0.000000
											CHANNELS 3 Xrotation Yrotation Zrotation
											End Site
											{
												OFFSET 0.057701 4.578827 0.399218
											}
										}
									}
								}
								JOINT newVegas:LeftHandRing1
								{
									OFFSET 17.732719 0.121887 -4.201567
									CHANNELS 3 Xrotation Yrotation Zrotation
									JOINT newVegas:LeftHandRing2
									{
										OFFSET 2.733170 0.000000 0.000000
										CHANNELS 3 Xrotation Yrotation Zrotation
										JOINT newVegas:LeftHandRing3
										{
											OFFSET 3.178268 0.000000 0.000000
											CHANNELS 3 Xrotation Yrotation Zrotation
											End Site
											{
												OFFSET 0.119102 3.170624 0.185394
											}
										}
									}
								}
								JOINT newVegas:LeftHandPinky1
								{
									OFFSET 15.989624 -0.606689 -7.535461
									CHANNELS 3 Xrotation Yrotation Zrotation
									JOINT newVegas:LeftHandPinky2
									{
										OFFSET 2.538986 0.000000 0.000000
										CHANNELS 3 Xrotation Yrotation Zrotation
										JOINT newVegas:LeftHandPinky3
										{
											OFFSET 2.593102 0.000000 0.000000
											CHANNELS 3 Xrotation Yrotation Zrotation
											End Site
											{
												OFFSET -0.150902 2.584198 0.152708
											}
										}
									}
								}
							}
							JOINT newVegas:Left_Sleeve
							{
								OFFSET 0.267448 -0.649796 0.577675
								CHANNELS 3 Xrotation Yrotation Zrotation
								End Site
								{
									OFFSET 0.000000 15.991241 0.000000
								}
							}
							JOINT newVegas:Left_CapeC
							{
								OFFSET 15.715958 -8.608795 -6.935905
								CHANNELS 3 Xrotation Yrotation Zrotation
								JOINT newVegas:Left_CapeC1
								{
									OFFSET 0.000000 -8.688499 0.000000
									CHANNELS 3 Xrotation Yrotation Zrotation
									End Site
									{
										OFFSET 0.000000 8.688499 0.000000
									}
								}
							}
						}
						JOINT newVegas:Left_CapeB
						{
							OFFSET 26.118385 -8.608795 -7.079235
							CHANNELS 3 Xrotation Yrotation Zrotation
							JOINT newVegas:Left_CapeB1
							{
								OFFSET 0.000000 -8.688499 0.000000
								CHANNELS 3 Xrotation Yrotation Zrotation
								End Site
								{
									OFFSET 0.000000 8.688499 0.000000
								}
							}
						}
						JOINT newVegas:Left_CapeA
						{
							OFFSET 5.115639 -8.608795 -10.395809
							CHANNELS 3 Xrotation Yrotation Zrotation
							JOINT newVegas:Left_CapeA1
							{
								OFFSET 0.000000 -8.688499 0.000000
								CHANNELS 3 Xrotation Yrotation Zrotation
								End Site
								{
									OFFSET 0.000000 8.688499 0.000000
								}
							}
						}
					}
				}
				JOINT newVegas:RightShoulder
				{
					OFFSET -15.263000 10.923401 -0.547700
					CHANNELS 3 Xrotation Yrotation Zrotation
					JOINT newVegas:RightArm
					{
						OFFSET -25.438599 -2.830597 -13.032500
						CHANNELS 3 Xrotation Yrotation Zrotation
						JOINT newVegas:RightForeArm
						{
							OFFSET -29.960503 0.000000 0.000000
							CHANNELS 3 Xrotation Yrotation Zrotation
							JOINT newVegas:RightHand
							{
								OFFSET -27.849251 0.000000 0.000000
								CHANNELS 3 Xrotation Yrotation Zrotation
								JOINT newVegas:RightHandThumb1
								{
									OFFSET -4.487587 -3.305161 6.305391
									CHANNELS 3 Xrotation Yrotation Zrotation
									JOINT newVegas:RightHandThumb2
									{
										OFFSET -5.480453 -3.164139 3.164143
										CHANNELS 3 Xrotation Yrotation Zrotation
										JOINT newVegas:RightHandThumb3
										{
											OFFSET -5.159721 -2.978973 2.978967
											CHANNELS 3 Xrotation Yrotation Zrotation
											End Site
											{
												OFFSET -2.494507 5.926697 1.738678
											}
										}
									}
								}
								JOINT newVegas:RightHandIndex1
								{
									OFFSET -18.578728 -0.527832 5.208049
									CHANNELS 3 Xrotation Yrotation Zrotation
									JOINT newVegas:RightHandIndex2
									{
										OFFSET -3.192009 0.000000 0.000000
										CHANNELS 3 Xrotation Yrotation Zrotation
										JOINT newVegas:RightHandIndex3
										{
											OFFSET -3.835129 0.000000 0.000000
											CHANNELS 3 Xrotation Yrotation Zrotation
											End Site
											{
												OFFSET 0.034599 3.816971 0.371180
											}
										}
									}
								}
								JOINT newVegas:RightHandMiddle1
								{
									OFFSET -18.476105 0.000000 0.000000
									CHANNELS 3 Xrotation Yrotation Zrotation
									JOINT newVegas:RightHandMiddle2
									{
										OFFSET -3.324875 0.000000 0.000000
										CHANNELS 3 Xrotation Yrotation Zrotation
										JOINT newVegas:RightHandMiddle3
										{
											OFFSET -4.596550 0.000000 0.000000
											CHANNELS 3 Xrotation Yrotation Zrotation
											End Site
											{
												OFFSET -0.057701 4.578827 0.399218
											}
										}
									}
								}
								JOINT newVegas:RightHandRing1
								{
									OFFSET -17.732719 0.121887 -4.201567
									CHANNELS 3 Xrotation Yrotation Zrotation
									JOINT newVegas:RightHandRing2
									{
										OFFSET -2.733170 0.000000 0.000000
										CHANNELS 3 Xrotation Yrotation Zrotation
										JOINT newVegas:RightHandRing3
										{
											OFFSET -3.178268 0.000000 0.000000
											CHANNELS 3 Xrotation Yrotation Zrotation
											End Site
											{
												OFFSET -0.119102 3.170624 0.185394
											}
										}
									}
								}
								JOINT newVegas:RightHandPinky1
								{
									OFFSET -15.989624 -0.606689 -7.535461
									CHANNELS 3 Xrotation Yrotation Zrotation
									JOINT newVegas:RightHandPinky2
									{
										OFFSET -2.538986 0.000000 0.000000
										CHANNELS 3 Xrotation Yrotation Zrotation
										JOINT newVegas:RightHandPinky3
										{
											OFFSET -2.593102 0.000000 0.000000
											CHANNELS 3 Xrotation Yrotation Zrotation
											End Site
											{
												OFFSET 0.150902 2.584198 0.152708
											}
										}
									}
								}
							}
							JOINT newVegas:Right_CapeC
							{
								OFFSET -15.715958 -8.608795 -6.935905
								CHANNELS 3 Xrotation Yrotation Zrotation
								JOINT newVegas:Right_CapeC1
								{
									OFFSET 0.000000 -8.688499 0.000000
									CHANNELS 3 Xrotation Yrotation Zrotation
									End Site
									{
										OFFSET 0.000000 8.688499 0.000000
									}
								}
							}
							JOINT newVegas:Right_Sleeve
							{
								OFFSET -0.267448 -0.649994 0.577675
								CHANNELS 3 Xrotation Yrotation Zrotation
								End Site
								{
									OFFSET 0.000000 15.991302 0.000000
								}
							}
						}
						JOINT newVegas:Right_CapeA
						{
							OFFSET -5.115540 -8.608795 -10.395824
							CHANNELS 3 Xrotation Yrotation Zrotation
							JOINT newVegas:Right_CapeA1
							{
								OFFSET 0.000000 -8.688499 0.000000
								CHANNELS 3 Xrotation Yrotation Zrotation
								End Site
								{
									OFFSET 0.000000 8.688499 0.000000
								}
							}
						}
						JOINT newVegas:Right_CapeB
						{
							OFFSET -26.118187 -8.608795 -7.079266
							CHANNELS 3 Xrotation Yrotation Zrotation
							JOINT newVegas:Right_CapeB1
							{
								OFFSET 0.000000 -8.688499 0.000000
								CHANNELS 3 Xrotation Yrotation Zrotation
								End Site
								{
									OFFSET 0.000000 8.688499 0.000000
								}
							}
						}
					}
				}
				JOINT newVegas:Left_Collar
				{
					OFFSET 18.625099 8.655502 8.828100
					CHANNELS 3 Xrotation Yrotation Zrotation
					JOINT newVegas:Left_Collar1
					{
						OFFSET 14.783401 10.540405 -1.259500
						CHANNELS 3 Xrotation Yrotation Zrotation
						End Site
						{
							OFFSET 0.000000 18.199875 0.000000
						}
					}
				}
				JOINT newVegas:Collar_Back
				{
					OFFSET 0.000000 15.630707 -20.132601
					CHANNELS 3 Xrotation Yrotation Zrotation
					End Site
					{
						OFFSET 0.000000 22.523010 0.000000
					}
				}
				JOINT newVegas:Left_Peck
				{
					OFFSET 17.239599 -5.132599 25.482599
					CHANNELS 3 Xrotation Yrotation Zrotation
					End Site
					{
						OFFSET 0.000000 22.523010 0.000000
					}
				}
				JOINT newVegas:Right_Peck
				{
					OFFSET -17.239599 -5.132202 25.482599
					CHANNELS 3 Xrotation Yrotation Zrotation
					End Site
					{
						OFFSET 0.000000 22.523010 0.000000
					}
				}
				JOINT newVegas:Right_Collar
				{
					OFFSET -18.625099 8.655792 8.828100
					CHANNELS 3 Xrotation Yrotation Zrotation
					JOINT newVegas:Right_Collar1
					{
						OFFSET -14.783401 10.539993 -1.259500
						CHANNELS 3 Xrotation Yrotation Zrotation
						End Site
						{
							OFFSET 0.000000 18.199631 0.000000
						}
					}
				}
			}
		}
		JOINT newVegas:Belly
		{
			OFFSET 0.000000 -6.540398 9.014299
			CHANNELS 3 Xrotation Yrotation Zrotation
			End Site
			{
				OFFSET 0.000000 11.566666 0.000000
			}
		}
	}
	JOINT newVegas:ElvisFacialAnim_Joint
	{
		OFFSET 1.000000 -95.330101 -8.825800
		CHANNELS 3 Xrotation Yrotation Zrotation
		End Site
		{
			OFFSET 0.000000 35.315800 0.000000
		}
	}
}
MOTION
Frames: 4
Frame Time: 0.033333
-0.499896 85.571793 -59.589626 -13.860960 -20.021868 0.242014 -0.000000 -0.000000 -0.000000 23.038150 33.394328 2.560807 42.196308 4.667549 -0.763356 -23.256340 0.469036 -4.261142 0.000001 0.000000 0.000000 -0.000006 0.000003 0.000001 -46.921965 16.367915 8.839168 39.566268 1.190087 9.990756 7.276563 -29.704394 -1.559775 -0.000001 0.000000 0.000000 0.000000 0.000000 -0.000000 3.450781 -11.459199 -2.160903 16.546825 -1.579405 1.081274 16.548736 -1.695523 1.031360 0.667075 2.707660 0.630087 0.667057 2.707657 0.630088 -0.000001 0.000003 -0.000001 0.667064 2.707674 0.630076 0.667059 2.707659 0.630098 0.000000 0.000000 -0.000000 -0.000001 0.000003 -0.000001 -37.207015 -3.516255 0.888988 -49.406904 -16.079823 -67.854699 -0.000032 -48.376416 -0.000031 -123.056499 5.026342 26.496807 4.794433 10.247087 4.650829 19.163438 -2.713598 8.146700 0.000001 -0.000002 -0.000003 -0.216660 4.007880 -37.875117 2.942043 5.078854 -60.143545 -0.000002 -0.000001 -0.000001 0.060633 5.331318 -53.848279 3.380209 5.305402 -64.982502 -0.000002 -0.000000 0.000003 -0.531924 5.555787 -61.926265 4.126152 5.591866 -72.826025 -0.000002 -0.000001 -0.000002 -6.833799 4.782950 -73.941586 3.345174 5.288963 -64.603153 0.000001 -0.000005 0.000003 -0.000000 0.000002 0.000002 -0.000000 0.000002 0.000002 -0.000000 0.000002 0.000002 0.000003 0.000000 0.000002 0.000002 0.000000 -0.000001 0.000003 0.000000 0.000002 0.000001 -0.000001 0.000001 -41.590255 -11.814655 -10.970579 -48.598357 56.961534 101.582282 -0.000371 97.719257 0.000319 -54.725914 -21.282666 -33.506173 8.206691 -4.772101 9.941473 22.028113 -18.884437 -18.192777 0.000002 -0.000000 0.000003 -0.881955 0.806750 14.385181 0.747168 -2.532001 32.876849 -0.000001 0.000001 0.000005 3.912267 -7.425919 54.459513 6.402720 -4.318305 112.034848 0.000000 0.000000 0.000000 -3.170228 -2.767645 57.386314 5.527302 -4.575327 100.779591 0.000001 0.000001 -0.000001 -4.142492 -3.357857 65.434688 3.961089 -4.604943 81.394961 -0.000001 0.000003 -0.000001 0.000002 0.000001 -0.000000 0.000003 -0.000001 0.000001 0.000002 0.000000 -0.000000 0.000001 0.000001 0.000001 0.000001 0.000002 0.000001 0.000001 0.000001 0.000001 0.000001 0.000002 0.000002 0.000002 -0.000001 -0.000000 0.000002 -0.000001 -0.000000 0.000002 -0.000001 -0.000000 0.000002 -0.000001 -0.000000 0.000002 -0.000001 -0.000000 0.000002 -0.000001 -0.000000 0.000002 -0.000001 -0.000000 -0.000001 0.000001 0.000000 -0.000000 -0.000000 -0.000000 
-0.121853 85.285728 -63.434776 -13.769641 -21.145593 0.970987 0.000000 0.000000 0.000000 25.235411 33.627774 -1.117354 40.513684 7.567482 -2.299141 -29.759247 -1.043201 -2.191510 0.000000 0.000000 -0.000001 0.000003 -0.000003 0.000003 -47.075706 18.262591 5.311576 39.136164 2.972997 10.201331 4.173384 -29.313311 11.183286 -0.000001 -0.000001 -0.000003 -0.000001 0.000000 -0.000001 4.222315 -11.122669 -3.241314 16.422527 -1.545968 0.983652 16.426033 -1.651594 0.937549 0.661405 2.745909 0.599790 0.661425 2.745918 0.599785 0.000002 0.000000 -0.000000 0.661408 2.745922 0.599781 0.661331 2.745921 0.599792 0.000001 -0.000000 -0.000000 0.000002 0.000000 -0.000002 -37.200735 -3.534708 1.097413 -50.613382 -15.852691 -68.021478 -0.000008 -47.307775 -0.000005 -122.488351 5.353914 26.136387 4.828346 10.264533 4.441656 19.196482 -2.591645 8.095648 0.000003 0.000002 -0.000001 -0.312462 3.864426 -37.609282 2.939046 5.077155 -60.109633 -0.000000 -0.000001 0.000000 -0.027761 5.260623 -53.755703 3.392190 5.310950 -65.112221 -0.000003 0.000001 -0.000000 -0.420939 5.619313 -61.980893 4.125727 5.591721 -72.821763 0.000001 0.000001 -0.000000 -6.660084 4.827011 -73.909989 3.342753 5.287812 -64.576672 -0.000003 -0.000002 -0.000002 -0.000001 -0.000001 0.000001 -0.000001 -0.000001 0.000001 -0.000001 -0.000000 0.000001 0.000001 0.000000 -0.000001 0.000001 0.000000 -0.000001 0.000001 0.000000 -0.000001 -0.000000 -0.000001 -0.000001 -41.595056 -11.674489 -11.008085 -49.621393 56.889206 101.651117 -0.001189 96.850669 0.001180 -55.016183 -20.426635 -32.894037 8.130121 -4.680140 9.838007 21.914240 -18.698169 -18.240509 0.000000 0.000001 -0.000000 -0.901001 0.856000 14.470292 0.747254 -2.532144 32.878748 0.000000 -0.000001 -0.000000 3.873443 -7.379759 54.842697 6.403456 -4.318027 112.044459 0.000000 -0.000000 0.000002 -3.170969 -2.787537 57.539829 5.524152 -4.575913 100.740407 0.000001 0.000001 -0.000002 -4.129007 -3.397677 65.663813 3.967749 -4.605951 81.477982 -0.000001 -0.000000 -0.000002 -0.000001 0.000001 0.000001 0.000000 -0.000000 0.000001 -0.000001 0.000001 0.000001 0.000000 0.000001 -0.000000 0.000000 0.000002 0.000001 0.000000 0.000001 -0.000000 0.000001 0.000002 0.000002 -0.000000 -0.000000 -0.000001 -0.000000 -0.000000 -0.000001 -0.000000 -0.000000 -0.000001 -0.000000 -0.000000 -0.000001 -0.000000 -0.000000 -0.000001 -0.000000 -0.000000 -0.000001 -0.000000 -0.000000 -0.000001 -0.000000 0.000003 0.000001 0.000000 0.000000 0.000000 
0.033741 84.148697 -66.551033 -13.918967 -22.225258 1.517789 -0.000000 -0.000002 -0.000001 26.791403 33.166886 -3.786665 40.538016 9.832387 -3.477733 -36.071486 -1.951404 -1.582189 0.000001 -0.000000 -0.000002 0.000000 -0.000001 0.000001 -43.603641 21.016998 -0.397418 35.166967 4.879210 9.970542 2.357724 -28.569469 32.540076 -0.000003 -0.000001 -0.000001 -0.000001 0.000000 -0.000000 5.571803 -10.792962 -3.934951 16.243802 -1.530036 0.837116 16.246727 -1.625351 0.796770 0.596749 2.767957 0.525243 0.596748 2.767950 0.525256 -0.000001 0.000002 -0.000001 0.596748 2.767954 0.525240 0.596758 2.767967 0.525243 -0.000000 0.000001 0.000001 -0.000001 0.000002 -0.000001 -37.193874 -3.560992 1.160225 -51.704050 -15.633845 -68.281080 0.000008 -46.795600 0.000001 -122.297419 5.330315 25.963615 4.766017 10.131604 4.375154 19.212113 -2.525873 8.068478 0.000000 0.000001 -0.000003 -0.405014 3.723084 -37.347188 2.936040 5.075423 -60.075701 0.000001 -0.000001 -0.000000 -0.050000 5.229565 -53.535846 3.384799 5.307524 -65.032232 -0.000001 0.000001 0.000001 -0.493917 5.567433 -61.821067 4.120363 5.590087 -72.766882 -0.000002 0.000003 -0.000000 -6.660173 4.783732 -73.704209 3.340494 5.286746 -64.552132 0.000000 -0.000004 0.000003 -0.000000 0.000000 -0.000001 -0.000000 0.000000 -0.000001 -0.000000 0.000001 -0.000001 -0.000001 -0.000002 -0.000000 -0.000001 -0.000003 0.000000 -0.000001 -0.000002 -0.000000 -0.000003 -0.000003 -0.000000 -41.687810 -11.443769 -11.411101 -50.278891 56.545029 101.235793 -0.001444 96.636310 0.001443 -55.437808 -20.219389 -32.669369 8.100852 -4.643721 9.796498 21.851346 -18.595422 -18.266581 0.000004 0.000000 -0.000002 -0.903320 0.854092 14.505443 0.747267 -2.532143 32.878891 -0.000001 -0.000000 -0.000000 3.886036 -7.379298 55.036244 6.404544 -4.317574 112.059096 -0.000000 -0.000000 -0.000001 -3.161042 -2.797842 57.569622 5.515459 -4.577563 100.631650 0.000001 0.000001 -0.000002 -4.163991 -3.388897 65.712608 3.954065 -4.603899 81.307501 -0.000002 -0.000002 -0.000001 -0.000002 0.000001 0.000001 -0.000001 -0.000001 -0.000000 -0.000002 0.000000 0.000001 -0.000000 -0.000004 -0.000003 -0.000000 -0.000003 -0.000001 -0.000000 -0.000004 -0.000003 -0.000000 -0.000003 -0.000000 -0.000000 0.000000 -0.000000 -0.000000 0.000000 -0.000000 -0.000000 0.000000 -0.000000 -0.000000 0.000000 -0.000000 -0.000000 0.000000 -0.000000 -0.000000 0.000000 -0.000000 -0.000000 0.000000 -0.000000 0.000000 -0.000003 -0.000000 -0.000000 -0.000002 -0.000001 
0.558027 83.858948 -70.074883 -14.156872 -23.175414 1.150613 -0.000000 -0.000001 -0.000000 26.537044 33.363261 -4.584681 40.306398 10.931853 -4.076419 -39.503816 -1.884493 -2.264755 -0.000000 -0.000000 -0.000000 0.000001 0.000000 -0.000000 -43.491810 21.282818 -2.371524 35.704582 6.317243 10.425241 0.728197 -28.615631 33.723058 -0.000002 -0.000002 0.000003 -0.000001 0.000000 -0.000001 7.101844 -10.411371 -3.581116 16.111313 -1.514615 0.655909 16.111002 -1.602110 0.621299 0.509232 2.763236 0.481683 0.509238 2.763228 0.481701 0.000003 -0.000001 0.000000 0.509251 2.763227 0.481698 0.509229 2.763235 0.481689 -0.000001 -0.000001 -0.000000 0.000003 -0.000001 0.000001 -37.190643 -3.636310 1.036495 -52.552203 -15.640845 -68.430518 -0.000001 -47.278884 0.000003 -122.093060 4.892199 26.610714 4.755708 10.121294 4.402241 19.227232 -2.455060 8.039560 -0.000000 0.000000 -0.000004 -0.413519 3.707437 -37.291108 2.937166 5.076071 -60.088473 -0.000003 -0.000000 -0.000000 -0.021461 5.245008 -53.450936 3.376429 5.303631 -64.941644 -0.000001 -0.000001 0.000000 -0.513859 5.552563 -61.769813 4.118396 5.589467 -72.746473 0.000001 -0.000001 0.000001 -6.676387 4.757550 -73.602542 3.341073 5.287024 -64.558682 0.000001 -0.000005 0.000001 -0.000001 0.000000 -0.000000 -0.000001 0.000000 -0.000000 -0.000002 0.000001 0.000000 0.000002 0.000000 0.000002 0.000002 0.000000 0.000001 0.000002 0.000000 0.000002 0.000001 -0.000000 0.000002 -41.740297 -11.188239 -11.635709 -50.008681 56.139582 99.823932 0.002595 97.333659 -0.002576 -56.354631 -20.367957 -33.042864 8.124689 -4.663797 9.881380 21.840262 -18.584327 -18.271649 -0.000003 -0.000003 0.000001 -0.897490 0.827808 14.515424 0.747235 -2.532095 32.878164 -0.000000 -0.000001 -0.000001 3.946442 -7.416172 55.140582 6.406873 -4.316652 112.089715 0.000001 -0.000000 0.000001 -3.163551 -2.802425 57.616225 5.506698 -4.579182 100.521602 -0.000001 0.000001 -0.000001 -4.192692 -3.381654 65.751882 3.959513 -4.604690 81.375202 -0.000001 0.000003 0.000002 0.000003 0.000003 0.000000 0.000001 0.000003 -0.000001 0.000003 0.000003 0.000000 -0.000000 0.000001 0.000002 -0.000000 0.000002 0.000003 -0.000000 0.000001 0.000002 -0.000000 0.000002 0.000004 0.000001 0.000002 -0.000000 0.000001 0.000002 -0.000000 0.000001 0.000002 -0.000000 0.000001 0.000002 -0.000000 0.000001 0.000002 -0.000000 0.000001 0.000002 -0.000000 0.000001 0.000002 -0.000000 0.000000 0.000000 -0.000000 -0.000000 -0.000001 -0.000000 
